<?xml version="1.0" encoding="UTF-8" standalone="no"?>
<!-- Created with Inkscape (http://www.inkscape.org/) -->

<svg
   xmlns:dc="http://purl.org/dc/elements/1.1/"
   xmlns:cc="http://creativecommons.org/ns#"
   xmlns:rdf="http://www.w3.org/1999/02/22-rdf-syntax-ns#"
   xmlns:svg="http://www.w3.org/2000/svg"
   xmlns="http://www.w3.org/2000/svg"
   xmlns:sodipodi="http://sodipodi.sourceforge.net/DTD/sodipodi-0.dtd"
   xmlns:inkscape="http://www.inkscape.org/namespaces/inkscape"
   version="1.1"
   id="svg2"
   width="185.60001"
   height="61.439999"
   viewBox="0 0 185.60001 61.439999"
   sodipodi:docname="sitvlogo_fix1_aligned_plain.svg"
   inkscape:version="0.92.5 (2060ec1f9f, 2020-04-08)">
  <metadata
     id="metadata8">
    <rdf:RDF>
      <cc:Work
         rdf:about="">
        <dc:format>image/svg+xml</dc:format>
        <dc:type
           rdf:resource="http://purl.org/dc/dcmitype/StillImage" />
        <dc:title></dc:title>
      </cc:Work>
    </rdf:RDF>
  </metadata>
  <defs
     id="defs6">
    <style
       id="style147"
       type="text/css">
   <![CDATA[
    .fil1 {fill:#FEFEFE;fill-rule:nonzero}
    .fil0 {fill:#FEFEFE;fill-rule:nonzero}
   ]]>
  </style>
  </defs>
  <sodipodi:namedview
     pagecolor="#ffffff"
     bordercolor="#666666"
     borderopacity="1"
     objecttolerance="10"
     gridtolerance="10"
     guidetolerance="10"
     inkscape:pageopacity="0"
     inkscape:pageshadow="2"
     inkscape:window-width="1920"
     inkscape:window-height="926"
     id="namedview4"
     showgrid="false"
     inkscape:zoom="4.327981"
     inkscape:cx="47.275866"
     inkscape:cy="25.209119"
     inkscape:window-x="0"
     inkscape:window-y="25"
     inkscape:window-maximized="1"
     inkscape:current-layer="svg2" />
  <g
     style="clip-rule:evenodd;fill:#ffffff;fill-rule:evenodd;image-rendering:optimizeQuality;shape-rendering:geometricPrecision;text-rendering:geometricPrecision"
     id="g231"
     transform="matrix(3.454908e-4,0,0,3.454908e-4,73.804208,127.05397)">
    <g
       id="Layer_x0020_1"
       style="fill:#ffffff"
       transform="matrix(0.9355738,0,0,0.9355738,-196098.44,-353084.36)">
  <metadata
   id="CorelCorpID_0Corel-Layer" />

  <path
   id="path152"
   d="m 84304.89,76841.55 c -936.72,11583.04 -6838.06,20198.51 -17704.03,25846.44 -5995.01,3063.28 -13301.45,4642.78 -21919.28,4738.52 C 24354.74,107522.22 9460.87,97949.47 -0.01,78708.22 L 17141.98,66790.14 c 8055.81,12636.04 18078.72,18762.6 30068.75,18379.7 3091.18,-95.72 5784.25,-1005.14 8079.21,-2728.24 2294.97,-1723.09 3442.46,-4116.28 3442.46,-7179.57 0,-4307.73 -3606.38,-7706.05 -10819.13,-10194.97 L 37656.17,61477.27 C 14987.51,53531.88 3325.33,43001.84 2669.63,29887.16 2388.61,24047.78 3934.21,18734.9 7306.4,13948.52 10397.57,9545.06 14729.92,6074.93 20303.4,3538.14 25876.9,1001.36 32504.19,-171.3 40185.31,20.15 56390.58,403.06 69129.99,7056.14 78403.52,19979.36 L 63790.68,33764.12 C 54517.14,24095.64 45758.79,19309.26 37515.63,19404.99 c -6650.71,95.72 -9929.23,2776.1 -9835.56,8041.1 93.67,2871.84 2107.61,5504.35 6041.84,7897.54 374.71,287.17 4168.43,1818.82 11381.17,4594.92 936.73,382.91 2763.33,1100.87 5479.83,2153.87 11146.97,4212.01 19015.44,8136.84 23605.37,11774.5 7493.78,6030.84 10865.97,13689.05 10116.59,22974.62 z M 106083.66,2461.21 h 20092.68 V 19405 h -20092.68 z m 20092.68,102524.25 H 106083.66 V 34625.69 h 20092.68 z M 213853.42,19405 h -25572.49 v 85580.46 H 166361.65 V 19405 H 140789.17 V 2461.21 h 73064.25 z M 305324.24,2461.21 273850.4,107426.52 H 254600.78 L 220316.79,2461.21 h 21778.75 l 22059.79,65740.93 20162.94,-65740.93 z m 34705.53,92329.25 c 0,3637.65 -1194.33,6677 -3582.96,9118.06 -2388.65,2441.05 -5362.74,3661.58 -8922.28,3661.58 -3465.87,0 -6393.12,-1244.46 -8781.75,-3733.39 -2388.65,-2488.91 -3582.96,-5504.33 -3582.96,-9046.26 0,-3541.92 1194.31,-6533.4 3582.96,-8974.45 2388.63,-2441.06 5315.88,-3661.57 8781.75,-3661.57 3559.54,0 6533.63,1196.6 8922.28,3589.77 2388.63,2393.19 3582.96,5408.62 3582.96,9046.26 z m 100416.5,10195 H 415342.15 L 390050.68,64061.92 h -8570.99 v 40923.54 H 359841.42 V 2461.21 h 39061.28 c 24635.78,0 36766.31,10338.58 36391.63,31015.73 -281.02,13617.26 -7540.6,22998.55 -21802.19,28167.84 l 26954.15,43340.67 z M 411126.9,33476.95 c 0,-5504.33 -1967.12,-9333.43 -5901.34,-11511.23 -2810.17,-1507.71 -7212.77,-2273.54 -13207.79,-2273.54 h -10538.09 v 27138.77 h 13067.24 c 11146.98,0 16673.64,-4451.33 16579.98,-13354 z m 125614.31,36472.22 c 0,7371.03 -843.06,13210.39 -2529.15,17518.15 -2060.79,5265.01 -5760.84,9764.22 -11100.14,13497.6 -6088.69,4307.73 -15268.56,6461.61 -27539.61,6461.61 -8992.52,0 -16720.47,-1388.06 -23183.84,-4164.16 -8243.14,-3541.93 -13441.96,-9094.12 -15596.41,-16656.61 -1592.43,-5552.2 -2388.64,-11104.39 -2388.64,-16656.59 V 2461.22 h 22059.78 v 66219.56 c 0,7371.01 1358.25,12731.77 4074.73,16058.3 2997.52,3637.66 8055.81,5456.48 15174.89,5456.48 7119.07,0 12177.37,-1818.82 15174.88,-5456.48 2622.81,-3230.81 3934.22,-8591.54 3934.22,-16058.3 V 2461.22 h 21919.29 z"
   class="fil0"
   inkscape:connector-curvature="0"
   style="fill:#ffffff;fill-rule:nonzero" />

  <path
   id="path154"
   d="m 95309.58,166086.99 c -1710.03,-8057.46 -2563.43,-15979.3 -2563.43,-23765.06 0,-7787.14 853.4,-15841.39 2563.43,-24170.09 0,0 6537.95,-8.3 6537.95,-8.3 0,0 -1364.98,6658.81 -1364.98,6658.81 -1066.52,5158.67 -1600.7,11091.41 -1600.7,17789.89 0,6110.33 512.04,11725.23 1535.19,16837.31 0,0 1334.99,6657.43 1334.99,6657.43 0,0 -6442.46,0 -6442.46,0 z"
   class="fil1"
   inkscape:connector-curvature="0"
   style="fill:#ffffff;fill-rule:nonzero" />

  <path
   id="path156"
   d="m 170777.67,118146.77 c 1707.25,8057.46 2565.27,15974.69 2565.27,23761.84 0,7787.14 -852.01,15844.61 -2565.27,24170.55 0,0 -6558.26,1.38 -6558.26,1.38 0,0 1382.51,-6656.97 1382.51,-6656.97 1069.29,-5157.29 1606.7,-11086.33 1606.7,-17788.06 0,-6108.94 -514.81,-11720.61 -1541.66,-16836.39 0,0 -1338.22,-6652.36 -1338.22,-6652.36 0,0 6448.93,0 6448.93,0 z"
   class="fil1"
   inkscape:connector-curvature="0"
   style="fill:#ffffff;fill-rule:nonzero" />

  <path
   id="path158"
   d="m 7613.91,155479.02 c 0,0 4541.93,0 4541.93,0 0,0 0,3677.46 0,3677.46 0,0 -9599.12,0 -9599.12,0 0,0 0,-34422.41 0,-34422.41 0,0 9599.12,0 9599.12,0 0,0 0,3680.69 0,3680.69 0,0 -4541.93,0 -4541.93,0 0,0 0,27064.26 0,27064.26 z"
   class="fil1"
   inkscape:connector-curvature="0"
   style="fill:#ffffff;fill-rule:nonzero" />

  <path
   id="path160"
   d="m 531682.58,128414.76 c 0,0 -4581.6,0 -4581.6,0 0,0 0,-3680.69 0,-3680.69 0,0 9571.9,0 9571.9,0 0,0 0,34422.41 0,34422.41 0,0 -9571.9,0 -9571.9,0 0,0 0,-3677.46 0,-3677.46 0,0 4581.6,0 4581.6,0 0,0 0,-27064.26 0,-27064.26 z"
   class="fil1"
   inkscape:connector-curvature="0"
   style="fill:#ffffff;fill-rule:nonzero" />

  <path
   id="path162"
   d="m 116391.75,132893.03 c 0,0 0,17923.21 0,17923.21 6054.98,1037.91 11801.8,1560.57 17246.49,1560.57 6753.84,0 14344.01,-894.46 22770.05,-2685.67 0,0 0,6398.18 0,6398.18 -7844.35,1700.34 -15510.63,2545.9 -23002.09,2545.9 -7580.94,0 -15377.31,-852.01 -23396.48,-2558.81 0,0 0,-28379.87 0,-28379.87 7752.08,-1706.8 15421.59,-2563.43 23002.08,-2563.43 7494.69,0 15291.51,859.86 23396.49,2575.89 0,0 0,6468.3 0,6468.3 -8604.09,-1856.25 -16499.19,-2781.15 -23694.95,-2781.15 -4999.99,0 -10441.45,495.89 -16321.59,1496.9 z"
   class="fil1"
   inkscape:connector-curvature="0"
   style="fill:#ffffff;fill-rule:nonzero" />

  <path
   id="path164"
   d="m 39220.09,150092.92 c -2689.36,3293.2 -5878.76,4940.95 -9568.66,4940.95 -4534.09,0 -7814.37,-2057.85 -9842.22,-6177.22 -980.25,-2002.49 -1458.62,-4163.66 -1436.48,-6483.99 46.13,-3709.28 1117.26,-6747.84 3213.39,-9112.45 2186.55,-2504.37 5113.93,-3755.41 8781.7,-3755.41 3327.79,0 6026.37,1136.63 8100.36,3412.21 0,0 -2627.08,3206.94 -2627.08,3206.94 -1639.91,-1430.02 -3276.59,-2143.65 -4916.96,-2143.65 -1001.01,0 -2024.62,297.08 -3070.38,888 -2185.16,1230.27 -3242,3711.13 -3175.1,7443.93 46.13,2277.43 524.49,4122.61 1433.24,5533.71 1093.73,1706.8 2708.27,2560.2 4847.31,2560.2 1843.34,0 3618.41,-967.8 5325.21,-2903.4 0,0 2935.69,2590.18 2935.69,2590.18 z"
   class="fil1"
   inkscape:connector-curvature="0"
   style="fill:#ffffff;fill-rule:nonzero" />

  <path
   id="path166"
   d="m 59984.43,134132.53 c 0,0 -6226.58,0 -6226.58,0 0,0 0,20342.25 0,20342.25 0,0 -5339.5,0 -5339.5,0 0,0 0,-20342.25 0,-20342.25 0,0 -6204.44,0 -6204.44,0 0,0 0,-4068.18 0,-4068.18 0,0 17770.53,0 17770.53,0 0,0 0,4068.18 0,4068.18 z"
   class="fil1"
   inkscape:connector-curvature="0"
   style="fill:#ffffff;fill-rule:nonzero" />

  <path
   id="path168"
   d="m 77532.6,147305.77 c 136.54,-2306.02 -1361.75,-3459.72 -4495.8,-3459.72 0,0 -3132.66,0 -3132.66,0 0,0 0,6610.84 0,6610.84 0,0 3439.43,0 3439.43,0 1293.47,0 2258.04,-193.74 2893.71,-583.08 794.81,-502.35 1227.05,-1357.13 1295.32,-2568.04 z m -1017.15,-10393.46 c -46.14,-1106.19 -454.38,-1875.18 -1227.05,-2304.18 -590.92,-318.29 -1500.14,-475.6 -2726.72,-475.6 0,0 -2657.53,0 -2657.53,0 0,0 0,5594.14 0,5594.14 0,0 2964.29,0 2964.29,0 2499.76,0 3715.28,-937.35 3647.01,-2814.37 z m 7221.59,10553.99 c 136.54,4672.01 -2835.13,7008.48 -8912.25,7008.48 0,0 -10310.89,0 -10310.89,0 0,0 0,-24410.43 0,-24410.43 0,0 7933.37,0 7933.37,0 1936.99,0 3373.92,81.19 4308.05,239.87 3625.32,614.91 5494.04,2541.29 5608.43,5776.82 44.75,1459.08 -321.06,2677.82 -1096.5,3658.54 -823.42,1048.53 -1953.13,1606.7 -3391.46,1674.97 0,0 0,411.47 0,411.47 1703.57,-69.66 3094.38,425.78 4173.35,1487.68 1078.96,1058.22 1641.75,2443.95 1687.88,4152.59 z"
   class="fil1"
   inkscape:connector-curvature="0"
   style="fill:#ffffff;fill-rule:nonzero" />

  <path
   id="path170"
   d="m 201785.09,150092.92 c -2688.9,3293.2 -5878.76,4940.95 -9568.67,4940.95 -4534.08,0 -7814.36,-2057.85 -9842.22,-6177.22 -980.25,-2002.49 -1458.62,-4163.66 -1435.09,-6483.99 44.75,-3709.28 1115.87,-6747.84 3212,-9112.45 2186.55,-2504.37 5115.78,-3755.41 8783.55,-3755.41 3326.41,0 6024.53,1136.63 8098.52,3412.21 0,0 -2627.09,3206.94 -2627.09,3206.94 -1638.06,-1430.02 -3276.58,-2143.65 -4915.12,-2143.65 -1001.47,0 -2026.47,297.08 -3072.23,888 -2185.16,1230.27 -3241.99,3711.13 -3173.26,7443.93 44.28,2277.43 522.65,4122.61 1433.24,5533.71 1091.9,1706.8 2707.81,2560.2 4847.31,2560.2 1841.49,0 3617.03,-967.8 5323.82,-2903.4 0,0 2935.23,2590.18 2935.23,2590.18 z"
   class="fil1"
   inkscape:connector-curvature="0"
   style="fill:#ffffff;fill-rule:nonzero" />

  <path
   id="path172"
   d="m 224943.09,130064.36 c 0,0 -6388.95,17301.84 -6388.95,17301.84 -911.99,2475.78 -1778.3,4236.55 -2598.03,5282.31 -1322.53,1703.57 -2995.66,2498.38 -5023.52,2385.37 -890.29,-46.13 -1652.82,-192.37 -2290.33,-441.47 0,0 0,-4012.81 0,-4012.81 523.11,120.86 967.8,182.67 1331.76,182.67 1390.81,0 2426.89,-1058.67 3110.06,-3176.95 0,0 -8816.76,-17520.96 -8816.76,-17520.96 0,0 5692.4,0 5692.4,0 0,0 5565.55,11412.02 5565.55,11412.02 0,0 4105.08,-11412.02 4105.08,-11412.02 0,0 5312.75,0 5312.75,0 z"
   class="fil1"
   inkscape:connector-curvature="0"
   style="fill:#ffffff;fill-rule:nonzero" />

  <path
   id="path174"
   d="m 241710.75,138387.07 c 90.41,-2835.13 -1407.88,-4254.53 -4497.65,-4254.53 0,0 -2317.09,0 -2317.09,0 0,0 0,8238.75 0,8238.75 0,0 2352.15,0 2352.15,0 2882.64,0 4370.32,-1327.15 4462.58,-3984.22 z m 6051.74,85.8 c -92.25,5379.65 -3401.13,8068.54 -9931.25,8068.54 0,0 -2935.23,0 -2935.23,0 0,0 0,7933.38 0,7933.38 0,0 -5390.24,0 -5390.24,0 0,0 0,-24410.43 0,-24410.43 0,0 7521.43,0 7521.43,0 3373.92,0 5913.36,535.57 7623.38,1606.7 2120.12,1344.68 3156.19,3612.42 3111.9,6801.81 z"
   class="fil1"
   inkscape:connector-curvature="0"
   style="fill:#ffffff;fill-rule:nonzero" />

  <path
   id="path176"
   d="m 267438.63,134132.53 c 0,0 -9424.28,0 -9424.28,0 0,0 0,20342.25 0,20342.25 0,0 -5339.5,0 -5339.5,0 0,0 0,-24410.43 0,-24410.43 0,0 14763.78,0 14763.78,0 0,0 0,4068.18 0,4068.18 z"
   class="fil1"
   inkscape:connector-curvature="0"
   style="fill:#ffffff;fill-rule:nonzero" />

  <path
   id="path178"
   d="m 291684.83,130064.36 c 0,0 -6389.88,17301.84 -6389.88,17301.84 -912.44,2475.78 -1776.91,4236.55 -2597.1,5282.31 -1322.07,1703.57 -2997.04,2498.38 -5024.9,2385.37 -888.46,-46.13 -1652.82,-192.37 -2289.87,-441.47 0,0 0,-4012.81 0,-4012.81 524.04,120.86 967.81,182.67 1333.15,182.67 1388.96,0 2426.88,-1058.67 3110.06,-3176.95 0,0 -8816.76,-17520.96 -8816.76,-17520.96 0,0 5691.02,0 5691.02,0 0,0 5565.08,11412.02 5565.08,11412.02 0,0 4106.46,-11412.02 4106.46,-11412.02 0,0 5312.75,0 5312.75,0 z"
   class="fil1"
   inkscape:connector-curvature="0"
   style="fill:#ffffff;fill-rule:nonzero" />

  <path
   id="path180"
   d="m 313178.94,134132.53 c 0,0 -6226.58,0 -6226.58,0 0,0 0,20342.25 0,20342.25 0,0 -5339.51,0 -5339.51,0 0,0 0,-20342.25 0,-20342.25 0,0 -6204.43,0 -6204.43,0 0,0 0,-4068.18 0,-4068.18 0,0 17770.53,0 17770.53,0 0,0 0,4068.18 0,4068.18 z"
   class="fil1"
   inkscape:connector-curvature="0"
   style="fill:#ffffff;fill-rule:nonzero" />

  <path
   id="path182"
   d="m 338091.71,154474.78 c 0,0 -5238.03,0 -5238.03,0 0,0 0,-14748.11 0,-14748.11 0,0 -9052.47,11604.37 -9052.47,11604.37 0,0 0,3143.74 0,3143.74 0,0 -5238.03,0 -5238.03,0 0,0 0,-24410.43 0,-24410.43 0,0 5238.03,0 5238.03,0 0,0 0,14704.75 0,14704.75 0,0 9052.47,-11686.94 9052.47,-11686.94 0,0 0,-3017.81 0,-3017.81 0,0 5238.03,0 5238.03,0 0,0 0,24410.43 0,24410.43 z"
   class="fil1"
   inkscape:connector-curvature="0"
   style="fill:#ffffff;fill-rule:nonzero" />

  <path
   id="path184"
   d="m 363755.47,154474.78 c 0,0 -5339.51,0 -5339.51,0 0,0 0,-11188.28 0,-11188.28 0,0 -8848.59,0 -8848.59,0 0,0 0,11188.28 0,11188.28 0,0 -5339.97,0 -5339.97,0 0,0 0,-24410.43 0,-24410.43 0,0 5339.97,0 5339.97,0 0,0 0,9153.97 0,9153.97 0,0 8848.59,0 8848.59,0 0,0 0,-9153.97 0,-9153.97 0,0 5339.51,0 5339.51,0 0,0 0,24410.43 0,24410.43 z"
   class="fil1"
   inkscape:connector-curvature="0"
   style="fill:#ffffff;fill-rule:nonzero" />

  <path
   id="path186"
   d="m 390368.59,141021.99 c 0,-4131.83 -1949.9,-6083.57 -5848.32,-5856.16 0,0 0,11782.44 0,11782.44 2097.98,136.53 3613.8,-297.54 4548.38,-1301.78 865.85,-935.97 1299.94,-2475.77 1299.94,-4624.5 z m -11086.33,5926.28 c 0,0 0,-11749.22 0,-11749.22 -274.94,-22.15 -548.48,-33.21 -823.42,-33.21 -3179.71,0 -4770.72,1953.13 -4770.72,5856.16 0,2124.73 389.33,3655.32 1166.62,4589.43 869.08,1028.24 2345.69,1473.38 4427.52,1336.85 z m 16375.1,-5964.57 c 0,2097.98 -455.76,3954.24 -1369.59,5572 -1006.08,1801.82 -2434.72,3032.1 -4284.52,3693.14 -1028.23,365.81 -2592.02,568.77 -4694.61,614.91 -136.54,0 -274.94,8.3 -411.47,22.6 0,0 -376.88,0 -376.88,0 0,0 0,3588.43 0,3588.43 0,0 -5238.02,0 -5238.02,0 0,0 0,-3587.04 0,-3587.04 -2441.19,0 -4231.94,-215.89 -5373.18,-649.97 -1802.29,-683.18 -3194.48,-1924.52 -4174.74,-3723.58 -889.84,-1617.76 -1334.99,-3462.95 -1334.99,-5536.94 0,-3712.05 1357.13,-6480.75 4073.24,-8301.95 1619.15,-1093.27 3888.72,-1582.71 6809.66,-1469.69 0,0 0,-2870.19 0,-2870.19 0,0 5238.02,0 5238.02,0 0,0 0,2871.57 0,2871.57 2353.53,-90.42 4397.53,250.95 6134.32,1026.85 2056.46,911.99 3450.04,2358.15 4181.19,4339.88 548.48,1505.21 821.57,2974.9 821.57,4409.99 z"
   class="fil1"
   inkscape:connector-curvature="0"
   style="fill:#ffffff;fill-rule:nonzero" />

  <path
   id="path188"
   d="m 416619.12,142269.34 c 0,-5797.11 -1830.89,-8695.89 -5492.19,-8695.89 -3661.77,0 -5492.2,2898.79 -5492.2,8695.89 0,5797.57 1830.43,8696.36 5492.2,8696.36 3661.31,0 5492.19,-2898.79 5492.19,-8696.36 z m 6204.43,0 c 0,3914.56 -956.73,6984.95 -2868.8,9215.79 -2026.01,2365.06 -4964.47,3548.75 -8812.14,3548.75 -2685.67,0 -4974.17,-637.05 -6863.63,-1911.61 -2026.47,-1363.59 -3380.38,-3299.19 -4063.56,-5800.81 -524.49,-1935.6 -785.13,-3618.41 -785.13,-5052.12 0,-4300.2 1387.12,-7747.47 4165.51,-10340.88 1730.32,-1614.53 4246.23,-2423.65 7546.81,-2423.65 3871.66,0 6819.34,1184.14 8845.82,3548.75 1889.47,2209.15 2835.13,5279.53 2835.13,9215.78 z"
   class="fil1"
   inkscape:connector-curvature="0"
   style="fill:#ffffff;fill-rule:nonzero" />

  <path
   id="path190"
   d="m 440056.66,138387.07 c 90.87,-2835.13 -1407.87,-4254.53 -4497.18,-4254.53 0,0 -2317.09,0 -2317.09,0 0,0 0,8238.75 0,8238.75 0,0 2350.3,0 2350.3,0 2884.48,0 4372.17,-1327.15 4463.96,-3984.22 z m 6051.75,85.8 c -92.26,5379.65 -3402.52,8068.54 -9930.79,8068.54 0,0 -2935.23,0 -2935.23,0 0,0 0,7933.38 0,7933.38 0,0 -5390.71,0 -5390.71,0 0,0 0,-24410.43 0,-24410.43 0,0 7521.9,0 7521.9,0 3372.08,0 5913.36,535.57 7623.38,1606.7 2120.12,1344.68 3156.19,3612.42 3111.44,6801.81 z"
   class="fil1"
   inkscape:connector-curvature="0"
   style="fill:#ffffff;fill-rule:nonzero" />

  <path
   id="path192"
   d="m 474345.74,154474.78 c 0,0 -5187.27,0 -5187.27,0 0,0 0,-16300.83 0,-16300.83 0,0 -4672.47,11550.4 -4672.47,11550.4 0,0 -3656.7,0 -3656.7,0 0,0 -4689.54,-11553.63 -4689.54,-11553.63 0,0 0,16304.06 0,16304.06 0,0 -5187.28,0 -5187.28,0 0,0 0,-24410.43 0,-24410.43 0,0 6287.01,0 6287.01,0 0,0 5414.23,12934.75 5414.23,12934.75 0,0 5397.17,-12934.75 5397.17,-12934.75 0,0 6294.85,0 6294.85,0 0,0 0,24410.43 0,24410.43 z"
   class="fil1"
   inkscape:connector-curvature="0"
   style="fill:#ffffff;fill-rule:nonzero" />

  <path
   id="path194"
   d="m 497172.99,134132.53 c 0,0 -6226.57,0 -6226.57,0 0,0 0,20342.25 0,20342.25 0,0 -5339.51,0 -5339.51,0 0,0 0,-20342.25 0,-20342.25 0,0 -6204.43,0 -6204.43,0 0,0 0,-4068.18 0,-4068.18 0,0 17770.52,0 17770.52,0 0,0 0,4068.18 0,4068.18 z"
   class="fil1"
   inkscape:connector-curvature="0"
   style="fill:#ffffff;fill-rule:nonzero" />

  <path
   id="path196"
   d="m 514856.33,147305.77 c 136.54,-2306.02 -1362.2,-3459.72 -4494.41,-3459.72 0,0 -3134.05,0 -3134.05,0 0,0 0,6610.84 0,6610.84 0,0 3440.81,0 3440.81,0 1293.48,0 2258.05,-193.74 2893.71,-583.08 794.81,-502.35 1225.67,-1357.13 1293.94,-2568.04 z m -1017.15,-10393.46 c -46.14,-1106.19 -454.85,-1875.18 -1227.05,-2304.18 -590.92,-318.29 -1498.75,-475.6 -2725.34,-475.6 0,0 -2658.91,0 -2658.91,0 0,0 0,5594.14 0,5594.14 0,0 2965.67,0 2965.67,0 2497.92,0 3713.9,-937.35 3645.63,-2814.37 z m 7221.13,10553.99 c 137,4672.01 -2833.28,7008.48 -8910.4,7008.48 0,0 -10312.75,0 -10312.75,0 0,0 0,-24410.43 0,-24410.43 0,0 7933.38,0 7933.38,0 1937.44,0 3373.91,81.19 4308.51,239.87 3624.86,614.91 5494.04,2541.29 5608.43,5776.82 46.14,1459.08 -319.67,2677.82 -1096.5,3658.54 -821.57,1048.53 -1953.13,1606.7 -3391.46,1674.97 0,0 0,411.47 0,411.47 1703.57,-69.66 3095.76,425.78 4174.74,1487.68 1078.97,1058.22 1639.91,2443.95 1686.04,4152.59 z"
   class="fil1"
   inkscape:connector-curvature="0"
   style="fill:#ffffff;fill-rule:nonzero" />

 </g>
  </g>
</svg>
